# xmcd
#
# Track frame offsets: 
#        150
#        19875
#        39502
#        59590
#        75407
#        102150
#        125757
#        147225
#        166640
#        188560
#        216822
#        236220
#
# Disc length: 3297 seconds
#
# Revision: 2
# Processed by: cddbd v1.5.2PL0 Copyright (c) Steve Scherf et al.
# Submitted via: ExactAudioCopy v0.99pb4
#
DISCID=a00cdf0c
DTITLE=Mike Silver - Solid Silver
DYEAR=2003
DGENRE=Folk/Rock
TTITLE0=Reaching Out For Love
TTITLE1=Not A Matter Of Pride
TTITLE2=Old Fashioned Saturday Night
TTITLE3=Love's Another Colour
TTITLE4=Leaving Song
TTITLE5=Sepia Sunset
TTITLE6=Army and Navy
TTITLE7=Southern Hemisphere
TTITLE8=Angel In Deep Shadow
TTITLE9=Elaina
TTITLE10=Let It Be So
TTITLE11=Nothing To Do With Me
EXTD=
EXTT0=
EXTT1=
EXTT2=
EXTT3=
EXTT4=
EXTT5=
EXTT6=
EXTT7=
EXTT8=
EXTT9=
EXTT10=
EXTT11=
PLAYORDER=
